<svg xmlns="http://www.w3.org/2000/svg" xmlns:xlink="http://www.w3.org/1999/xlink" width="500" zoomAndPan="magnify" viewBox="0 0 375 89.999999" height="120" preserveAspectRatio="xMidYMid meet" version="1.0"><defs><g/></defs><path fill="#ffffff" d="M 56.800781 54.589844 C 56.78125 50.367188 56.742188 43.464844 56.726562 39.25 C 56.707031 35.027344 59.863281 33.285156 63.464844 35.378906 C 67.074219 37.472656 73.085938 40.894531 76.695312 42.980469 C 80.296875 45.070312 80.371094 48.519531 76.789062 50.652344 C 73.203125 52.78125 67.144531 56.261719 63.558594 58.390625 C 59.972656 60.519531 56.824219 58.808594 56.800781 54.589844 Z M 56.800781 54.589844 " fill-opacity="1" fill-rule="nonzero"/><path fill="#8cc640" d="M 49.210938 43.769531 C 49.457031 28.917969 53.277344 21.964844 58.042969 18.605469 C 60.703125 17.101562 62.890625 16.816406 64.933594 16.769531 C 66.441406 16.734375 67.890625 16.859375 69.285156 17.109375 C 73.714844 17.675781 83.441406 20.601562 92.707031 29.152344 C 87.78125 16.578125 72.777344 7.992188 59.027344 9.992188 C 48.460938 11.527344 39.289062 20.1875 38.402344 39.078125 C 37.640625 55.28125 44.824219 65.570312 50.328125 64.160156 C 49.738281 56.394531 49.121094 49.058594 49.210938 43.769531 Z M 49.210938 43.769531 " fill-opacity="1" fill-rule="nonzero"/><path fill="#f15b26" d="M 70.089844 61.984375 C 57.136719 69.253906 49.207031 69.460938 43.90625 67.039062 C 41.265625 65.496094 39.914062 63.753906 38.84375 62.015625 C 38.050781 60.730469 37.433594 59.421875 36.949219 58.085938 C 35.203125 53.976562 32.828125 44.097656 35.542969 31.792969 C 27.164062 42.378906 27.3125 59.667969 35.96875 70.53125 C 42.621094 78.878906 54.722656 82.433594 71.484375 73.683594 C 85.863281 66.171875 91.128906 54.78125 87.132812 50.742188 C 80.734375 55.164062 74.707031 59.390625 70.089844 61.984375 Z M 70.089844 61.984375 " fill-opacity="1" fill-rule="nonzero"/><path fill="#29aae2" d="M 75.542969 34.851562 C 88.230469 42.574219 92.300781 49.382812 92.785156 55.195312 C 92.738281 58.257812 91.875 60.285156 90.890625 62.074219 C 90.160156 63.394531 89.320312 64.574219 88.398438 65.65625 C 85.671875 69.191406 78.226562 76.105469 66.164062 79.765625 C 79.5 81.875 94.492188 73.277344 99.722656 60.402344 C 103.734375 50.511719 100.902344 38.222656 85.054688 27.898438 C 71.460938 19.046875 58.953125 20.042969 57.386719 25.503906 C 64.382812 28.921875 71.019531 32.101562 75.542969 34.851562 Z M 75.542969 34.851562 " fill-opacity="1" fill-rule="nonzero"/><g fill="#ffffff" fill-opacity="1"><g transform="translate(104.283841, 66.442732)"><g><path d="M 21.625 0.59375 C 18.207031 0.59375 15.226562 -0.0234375 12.6875 -1.265625 C 10.144531 -2.515625 8.171875 -4.320312 6.765625 -6.6875 C 5.367188 -9.050781 4.671875 -11.867188 4.671875 -15.140625 L 4.671875 -41.671875 L 10.328125 -41.671875 L 10.328125 -15.625 C 10.328125 -11.8125 11.289062 -8.921875 13.21875 -6.953125 C 15.15625 -4.984375 17.945312 -4 21.59375 -4 C 25.34375 -4 28.253906 -5.015625 30.328125 -7.046875 C 32.410156 -9.085938 33.453125 -12.070312 33.453125 -16 L 33.453125 -41.671875 L 39.078125 -41.671875 L 39.078125 -15.671875 C 39.078125 -12.304688 38.359375 -9.398438 36.921875 -6.953125 C 35.492188 -4.503906 33.472656 -2.632812 30.859375 -1.34375 C 28.253906 -0.0507812 25.175781 0.59375 21.625 0.59375 Z M 21.625 0.59375 "/></g></g></g><g fill="#ffffff" fill-opacity="1"><g transform="translate(148.028983, 66.442732)"><g><path d="M 24.40625 0 L 24.40625 -20.296875 C 24.40625 -22.398438 24.195312 -24.035156 23.78125 -25.203125 C 23.363281 -26.367188 22.703125 -27.207031 21.796875 -27.71875 C 20.890625 -28.226562 19.5625 -28.484375 17.8125 -28.484375 C 15.25 -28.484375 13.226562 -27.601562 11.75 -25.84375 C 10.269531 -24.09375 9.53125 -21.660156 9.53125 -18.546875 L 9.53125 0 L 4.203125 0 L 4.203125 -25.171875 C 4.203125 -28.898438 4.140625 -31.175781 4.015625 -32 L 9.046875 -32 C 9.066406 -31.90625 9.085938 -31.640625 9.109375 -31.203125 C 9.128906 -30.773438 9.15625 -30.28125 9.1875 -29.71875 C 9.21875 -29.15625 9.25 -28.09375 9.28125 -26.53125 L 9.375 -26.53125 C 10.59375 -28.738281 12.003906 -30.300781 13.609375 -31.21875 C 15.222656 -32.132812 17.222656 -32.59375 19.609375 -32.59375 C 23.117188 -32.59375 25.6875 -31.71875 27.3125 -29.96875 C 28.9375 -28.226562 29.75 -25.347656 29.75 -21.328125 L 29.75 0 Z M 24.40625 0 "/></g></g></g><g fill="#ffffff" fill-opacity="1"><g transform="translate(181.71777, 66.442732)"><g><path d="M 28.09375 -8.84375 C 28.09375 -5.820312 26.953125 -3.492188 24.671875 -1.859375 C 22.398438 -0.222656 19.210938 0.59375 15.109375 0.59375 C 11.128906 0.59375 8.054688 -0.0625 5.890625 -1.375 C 3.734375 -2.6875 2.332031 -4.734375 1.6875 -7.515625 L 6.390625 -8.4375 C 6.835938 -6.71875 7.769531 -5.457031 9.1875 -4.65625 C 10.613281 -3.851562 12.585938 -3.453125 15.109375 -3.453125 C 17.816406 -3.453125 19.796875 -3.867188 21.046875 -4.703125 C 22.296875 -5.535156 22.921875 -6.78125 22.921875 -8.4375 C 22.921875 -9.695312 22.488281 -10.71875 21.625 -11.5 C 20.757812 -12.289062 19.359375 -12.941406 17.421875 -13.453125 L 13.609375 -14.46875 C 10.546875 -15.25 8.367188 -16.019531 7.078125 -16.78125 C 5.785156 -17.539062 4.773438 -18.460938 4.046875 -19.546875 C 3.316406 -20.628906 2.953125 -21.960938 2.953125 -23.546875 C 2.953125 -26.460938 3.992188 -28.679688 6.078125 -30.203125 C 8.160156 -31.734375 11.191406 -32.5 15.171875 -32.5 C 18.703125 -32.5 21.503906 -31.878906 23.578125 -30.640625 C 25.660156 -29.398438 26.976562 -27.410156 27.53125 -24.671875 L 22.75 -24.078125 C 22.445312 -25.492188 21.648438 -26.582031 20.359375 -27.34375 C 19.066406 -28.101562 17.335938 -28.484375 15.171875 -28.484375 C 12.765625 -28.484375 10.988281 -28.117188 9.84375 -27.390625 C 8.707031 -26.660156 8.140625 -25.554688 8.140625 -24.078125 C 8.140625 -23.171875 8.375 -22.421875 8.84375 -21.828125 C 9.3125 -21.234375 10.007812 -20.726562 10.9375 -20.3125 C 11.863281 -19.90625 13.816406 -19.335938 16.796875 -18.609375 C 19.617188 -17.898438 21.648438 -17.242188 22.890625 -16.640625 C 24.128906 -16.035156 25.109375 -15.367188 25.828125 -14.640625 C 26.554688 -13.910156 27.113281 -13.066406 27.5 -12.109375 C 27.894531 -11.148438 28.09375 -10.0625 28.09375 -8.84375 Z M 28.09375 -8.84375 "/></g></g></g><g fill="#ffffff" fill-opacity="1"><g transform="translate(212.005143, 66.442732)"><g><path d="M 4.046875 -38.8125 L 4.046875 -43.890625 L 9.375 -43.890625 L 9.375 -38.8125 Z M 4.046875 0 L 4.046875 -32 L 9.375 -32 L 9.375 0 Z M 4.046875 0 "/></g></g></g><g fill="#ffffff" fill-opacity="1"><g transform="translate(225.462912, 66.442732)"><g><path d="M 16.203125 12.578125 C 12.710938 12.578125 9.929688 11.890625 7.859375 10.515625 C 5.796875 9.140625 4.46875 7.191406 3.875 4.671875 L 9.234375 3.90625 C 9.585938 5.382812 10.367188 6.519531 11.578125 7.3125 C 12.796875 8.113281 14.390625 8.515625 16.359375 8.515625 C 21.660156 8.515625 24.3125 5.410156 24.3125 -0.796875 L 24.3125 -5.953125 L 24.25 -5.953125 C 23.25 -3.898438 21.867188 -2.351562 20.109375 -1.3125 C 18.359375 -0.28125 16.3125 0.234375 13.96875 0.234375 C 10.039062 0.234375 7.15625 -1.066406 5.3125 -3.671875 C 3.46875 -6.273438 2.546875 -10.363281 2.546875 -15.9375 C 2.546875 -21.601562 3.535156 -25.78125 5.515625 -28.46875 C 7.492188 -31.15625 10.503906 -32.5 14.546875 -32.5 C 16.816406 -32.5 18.785156 -31.984375 20.453125 -30.953125 C 22.117188 -29.921875 23.40625 -28.445312 24.3125 -26.53125 L 24.375 -26.53125 C 24.375 -27.125 24.410156 -28.148438 24.484375 -29.609375 C 24.566406 -31.066406 24.648438 -31.863281 24.734375 -32 L 29.78125 -32 C 29.664062 -30.9375 29.609375 -28.726562 29.609375 -25.375 L 29.609375 -0.921875 C 29.609375 8.078125 25.140625 12.578125 16.203125 12.578125 Z M 24.3125 -16 C 24.3125 -18.601562 23.957031 -20.847656 23.25 -22.734375 C 22.539062 -24.617188 21.539062 -26.054688 20.25 -27.046875 C 18.957031 -28.046875 17.492188 -28.546875 15.859375 -28.546875 C 13.128906 -28.546875 11.144531 -27.554688 9.90625 -25.578125 C 8.664062 -23.609375 8.046875 -20.414062 8.046875 -16 C 8.046875 -11.625 8.625 -8.476562 9.78125 -6.5625 C 10.945312 -4.65625 12.941406 -3.703125 15.765625 -3.703125 C 17.441406 -3.703125 18.929688 -4.191406 20.234375 -5.171875 C 21.535156 -6.160156 22.539062 -7.578125 23.25 -9.421875 C 23.957031 -11.265625 24.3125 -13.457031 24.3125 -16 Z M 24.3125 -16 "/></g></g></g><g fill="#ffffff" fill-opacity="1"><g transform="translate(259.151699, 66.442732)"><g><path d="M 24.40625 0 L 24.40625 -20.296875 C 24.40625 -22.398438 24.195312 -24.035156 23.78125 -25.203125 C 23.363281 -26.367188 22.703125 -27.207031 21.796875 -27.71875 C 20.890625 -28.226562 19.5625 -28.484375 17.8125 -28.484375 C 15.25 -28.484375 13.226562 -27.601562 11.75 -25.84375 C 10.269531 -24.09375 9.53125 -21.660156 9.53125 -18.546875 L 9.53125 0 L 4.203125 0 L 4.203125 -25.171875 C 4.203125 -28.898438 4.140625 -31.175781 4.015625 -32 L 9.046875 -32 C 9.066406 -31.90625 9.085938 -31.640625 9.109375 -31.203125 C 9.128906 -30.773438 9.15625 -30.28125 9.1875 -29.71875 C 9.21875 -29.15625 9.25 -28.09375 9.28125 -26.53125 L 9.375 -26.53125 C 10.59375 -28.738281 12.003906 -30.300781 13.609375 -31.21875 C 15.222656 -32.132812 17.222656 -32.59375 19.609375 -32.59375 C 23.117188 -32.59375 25.6875 -31.71875 27.3125 -29.96875 C 28.9375 -28.226562 29.75 -25.347656 29.75 -21.328125 L 29.75 0 Z M 24.40625 0 "/></g></g></g><g fill="#ffffff" fill-opacity="1"><g transform="translate(292.840486, 66.442732)"><g><path d="M 8.15625 -14.875 C 8.15625 -11.207031 8.914062 -8.378906 10.4375 -6.390625 C 11.957031 -4.398438 14.175781 -3.40625 17.09375 -3.40625 C 19.40625 -3.40625 21.253906 -3.867188 22.640625 -4.796875 C 24.035156 -5.722656 24.976562 -6.894531 25.46875 -8.3125 L 30.140625 -6.984375 C 28.222656 -1.929688 23.875 0.59375 17.09375 0.59375 C 12.363281 0.59375 8.757812 -0.816406 6.28125 -3.640625 C 3.8125 -6.460938 2.578125 -10.648438 2.578125 -16.203125 C 2.578125 -21.492188 3.8125 -25.546875 6.28125 -28.359375 C 8.757812 -31.179688 12.296875 -32.59375 16.890625 -32.59375 C 26.296875 -32.59375 31 -26.925781 31 -15.59375 L 31 -14.875 Z M 25.5 -18.953125 C 25.195312 -22.328125 24.335938 -24.785156 22.921875 -26.328125 C 21.503906 -27.878906 19.460938 -28.65625 16.796875 -28.65625 C 14.210938 -28.65625 12.164062 -27.789062 10.65625 -26.0625 C 9.15625 -24.34375 8.34375 -21.972656 8.21875 -18.953125 Z M 25.5 -18.953125 "/></g></g></g><g fill="#ffffff" fill-opacity="1"><g transform="translate(326.529274, 66.442732)"><g><path d="M 24.28125 -5.140625 C 23.300781 -3.097656 21.992188 -1.628906 20.359375 -0.734375 C 18.734375 0.148438 16.71875 0.59375 14.3125 0.59375 C 10.269531 0.59375 7.296875 -0.765625 5.390625 -3.484375 C 3.492188 -6.210938 2.546875 -10.335938 2.546875 -15.859375 C 2.546875 -27.015625 6.46875 -32.59375 14.3125 -32.59375 C 16.738281 -32.59375 18.757812 -32.148438 20.375 -31.265625 C 22 -30.378906 23.300781 -28.96875 24.28125 -27.03125 L 24.34375 -27.03125 L 24.28125 -30.609375 L 24.28125 -43.890625 L 29.609375 -43.890625 L 29.609375 -6.59375 C 29.609375 -3.257812 29.664062 -1.0625 29.78125 0 L 24.703125 0 C 24.640625 -0.3125 24.570312 -1.039062 24.5 -2.1875 C 24.4375 -3.332031 24.40625 -4.316406 24.40625 -5.140625 Z M 8.140625 -16.03125 C 8.140625 -11.550781 8.726562 -8.34375 9.90625 -6.40625 C 11.09375 -4.476562 13.015625 -3.515625 15.671875 -3.515625 C 18.691406 -3.515625 20.878906 -4.5625 22.234375 -6.65625 C 23.597656 -8.75 24.28125 -11.992188 24.28125 -16.390625 C 24.28125 -20.628906 23.597656 -23.734375 22.234375 -25.703125 C 20.878906 -27.671875 18.710938 -28.65625 15.734375 -28.65625 C 13.054688 -28.65625 11.117188 -27.664062 9.921875 -25.6875 C 8.734375 -23.707031 8.140625 -20.488281 8.140625 -16.03125 Z M 8.140625 -16.03125 "/></g></g></g></svg>