<svg xmlns="http://www.w3.org/2000/svg" xmlns:xlink="http://www.w3.org/1999/xlink" width="500" zoomAndPan="magnify" viewBox="0 0 375 374.999991" height="500" preserveAspectRatio="xMidYMid meet" version="1.0"><path fill="#ffffff" d="M 155.550781 228.8125 C 155.457031 210.210938 155.292969 179.789062 155.222656 161.214844 C 155.128906 142.613281 169.039062 134.941406 184.917969 144.160156 C 200.820312 153.378906 227.300781 168.460938 243.203125 177.65625 C 259.082031 186.875 259.410156 202.074219 243.625 211.453125 C 227.816406 220.835938 201.125 236.175781 185.316406 245.558594 C 169.53125 254.941406 155.644531 247.410156 155.550781 228.8125 Z M 155.550781 228.8125 " fill-opacity="1" fill-rule="nonzero"/><path fill="#8cc640" d="M 122.105469 181.125 C 123.183594 115.6875 140.023438 85.054688 161.015625 70.253906 C 172.742188 63.613281 182.382812 62.371094 191.390625 62.160156 C 198.027344 61.996094 204.410156 62.558594 210.554688 63.660156 C 230.070312 66.148438 272.945312 79.046875 313.757812 116.71875 C 292.0625 61.316406 225.941406 23.484375 165.355469 32.300781 C 118.796875 39.058594 78.382812 77.21875 74.464844 160.460938 C 71.113281 231.859375 102.777344 277.199219 127.03125 270.984375 C 124.425781 236.761719 121.707031 204.441406 122.105469 181.125 Z M 122.105469 181.125 " fill-opacity="1" fill-rule="nonzero"/><path fill="#f15b26" d="M 214.097656 261.390625 C 157.027344 293.429688 122.082031 294.347656 98.71875 283.671875 C 87.085938 276.871094 81.128906 269.203125 76.414062 261.53125 C 72.917969 255.878906 70.195312 250.109375 68.0625 244.222656 C 60.371094 226.113281 49.90625 182.582031 61.871094 128.351562 C 24.953125 175.003906 25.609375 251.1875 63.746094 299.058594 C 93.066406 335.839844 146.378906 351.507812 220.242188 312.945312 C 283.617188 279.851562 306.816406 229.65625 289.199219 211.851562 C 261.007812 231.34375 234.457031 249.96875 214.097656 261.390625 Z M 214.097656 261.390625 " fill-opacity="1" fill-rule="nonzero"/><path fill="#29aae2" d="M 238.136719 141.839844 C 294.03125 175.871094 311.976562 205.871094 314.109375 231.484375 C 313.898438 244.972656 310.097656 253.910156 305.761719 261.789062 C 302.546875 267.605469 298.839844 272.8125 294.78125 277.574219 C 282.773438 293.148438 249.960938 323.617188 196.808594 339.753906 C 255.566406 349.042969 321.640625 311.164062 344.671875 254.425781 C 362.359375 210.84375 349.878906 156.6875 280.050781 111.207031 C 220.148438 72.199219 165.027344 76.585938 158.132812 100.652344 C 188.953125 115.710938 218.199219 129.710938 238.136719 141.839844 Z M 238.136719 141.839844 " fill-opacity="1" fill-rule="nonzero"/></svg>